# AST/ASF file generated using VICON BodyLanguage
# -----------------------------------------------
:version 1.10
:name VICON
:units
  mass 1.0
  length 0.45
  angle deg
:documentation
   .ast/.asf automatically generated from VICON data using
   VICON BodyBuilder and BodyLanguage model FoxedUp or BRILLIANT.MOD
:root
   order TX TY TZ RX RY RZ
   axis XYZ
   position 0 0 0  
   orientation 0 0 0 
:bonedata
  begin
     id 1 
     name lhipjoint
     direction 0.710087 -0.641647 0.289942 
     length 2.79038 
     axis 0 0 0  XYZ
  end
  begin
     id 2 
     name lfemur
     direction 0.34202 -0.939693 0  
     length 7.2706  
     axis 0 0 20  XYZ
    dof rx ry rz
    limits (-160.0 20.0)
           (-70.0 70.0)
           (-60.0 70.0)
  end
  begin
     id 3 
     name ltibia
     direction 0.34202 -0.939693 0   
     length 7.86328   
     axis 0 0 20   XYZ
    dof rx
    limits (-10.0 170.0)
  end
  begin
     id 4 
     name lfoot
     direction 0.0541246 -0.148706 0.987399   
     length 2.37542   
     axis -90 7.62852e-016 20   XYZ
    dof rx rz
    limits (-45.0 90.0)
           (-70.0 20.0)
  end
  begin
     id 5 
     name ltoes
     direction 1.53554e-011 -4.21866e-011 1   
     length 1.19593   
     axis -90 7.62852e-016 20   XYZ
    dof rx
    limits (-90.0 20.0)
  end
  begin
     id 6 
     name rhipjoint
     direction -0.675762 -0.671724 0.303533   
     length 2.66544  
     axis 0 0 0  XYZ 
  end
  begin
     id 7 
     name rfemur
     direction -0.34202 -0.939693 0   
     length 8.11844   
     axis 0 0 -20   XYZ
    dof rx ry rz
    limits (-160.0 20.0)
           (-70.0 70.0)
           (-70.0 60.0)
  end
  begin
     id 8 
     name rtibia
     direction -0.34202 -0.939693 0   
     length 7.97082   
     axis 0 0 -20   XYZ
    dof rx
    limits (-10.0 170.0)
 end
 begin
     id 9 
     name rfoot
     direction -0.0726228 -0.199474 0.977208   
     length 2.19677  
     axis -90 -7.62852e-016 -20   XYZ
    dof rx rz
    limits (-45.0 90.0)
           (-20.0 70.0)
  end
  begin
     id 10 
     name rtoes
     direction -1.53508e-011 -4.21913e-011 1   
     length 1.10438   
     axis -90 -7.62852e-016 -20   XYZ
    dof rx
    limits (-90.0 20.0)
  end
  begin
     id 11 
     name lowerback
     direction -0.00404436 0.999673 -0.0252643   
     length 2.03972   
     axis 0 0 0   XYZ
    dof rx ry rz
    limits (-20.0 45.0)
           (-30.0 30.0)
           (-30.0 30.0)
  end
  begin
     id 12 
     name upperback
     direction 0.00744643 0.999969 0.00242763   
     length 2.04273   
     axis 0 0 0   XYZ
    dof rx ry rz
    limits (-20.0 45.0)
           (-30.0 30.0)
           (-30.0 30.0)
  end
  begin
     id 13 
     name thorax
     direction 0.00846113 0.999862 0.0143204   
     length 2.03752   
     axis 0 0 0   XYZ
    dof rx ry rz
    limits (-20.0 45.0)
           (-30.0 30.0)
           (-30.0 30.0)
  end
  begin
     id 14 
     name lowerneck
     direction 0.0328213 0.990857 0.130862   
     length 1.37497   
     axis 0 0 0   XYZ
    dof rx ry rz
    limits (-20.0 45.0)
           (-30.0 30.0)
           (-30.0 30.0)
  end
  begin
     id 15 
     name upperneck
     direction -0.0302832 0.999496 0.00956452   
     length 1.35926   
     axis 0 0 0   XYZ
    dof rx ry rz
    limits (-20.0 45.0)
           (-30.0 30.0)
           (-30.0 30.0)
  end
  begin
     id 16
     name head
     direction -0.0130455 0.999856 -0.0108809  
     length 1.44454  
     axis 0 0 0   XYZ
    dof rx ry rz
    limits (-20.0 45.0)
           (-30.0 30.0)
           (-30.0 30.0)
  end
  begin
     id 17 
     name lclavicle
     direction 0.952957 0.278766 0.119006  
     length 3.10112  
     axis 0 0 0   XYZ
    dof ry rz
    limits (-20.0 10.0)
           (0.0 20.0)
  end
  begin
     id 18 
     name lhumerus
     direction 1 -4.48972e-011 -1.63238e-028   
     length 5.82845   
     axis -180 -30 -90   XYZ
    dof rx ry rz
    limits (-60.0 90.0)
           (-90.0 90.0)
           (-90.0 90.0)
  end
  begin
     id 19
     name lradius
     direction 1 -4.48959e-011 1.45401e-026   
     length 3.49691   
     axis -180 -30 -90   XYZ
    dof rx
    limits (-10.0 170.0)
  end
  begin
     id 20
     name lwrist
     direction 1 -4.48945e-011 2.98015e-026   
     length 1.74845   
     axis -1.7599e-014 90 90   XYZ
    dof ry
    limits (-180.0 0.0)
 end
  begin
     id 21 
     name lhand
     direction 1 -4.4902e-011 5.9603e-026   
     length 0.674998   
     axis -3.80318e-014 90 90   XYZ
    dof rx rz
    limits (-90.0 90.0)
           (-45.0 45.0)
  end
  begin
     id 22 
     name lfingers
     direction 1 -4.48979e-011 1.19206e-025   
     length 0.544201   
     axis -7.60636e-014 90 90   XYZ
    dof rx
    limits (0.0 90.0)
  end
  begin
     id 23
     name lthumb
     direction 0.707107 -6.34941e-011 0.707107   
     length 0.781367   
     axis -90 45 2.85299e-015   XYZ
    dof rx rz
    limits (-45.0 45.0)
           (-45.0 45.0)
  end
  begin
     id 24 
     name rclavicle
     direction -0.967632 0.241887 0.0719654   
     length 3.53012  
     axis 0 0 0   XYZ 
    dof ry rz
    limits (-10.0 20.0)
           (-20.0 0.0)
  end
  begin
     id 25 
     name rhumerus
     direction -1 -4.4897e-011 6.87619e-028  
     length 5.45859   
     axis -180 30 90   XYZ
    dof rx ry rz
    limits (-90.0 60.0)
           (-90.0 90.0)
           (-90.0 90.0)
  end
  begin
     id 26 
     name rradius
     direction -1 -4.48967e-011 1.68055e-026   
     length 3.58491   
     axis -180 30 90   XYZ
    dof rx
    limits (-10.0 170.0)
  end
  begin
     id 27 
     name rwrist
     direction -1 -4.48976e-011 2.98015e-026   
     length 1.79245   
     axis -1.7599e-014 -90 -90   XYZ
    dof ry
    limits (-180.0 0.0)
  end
  begin
     id 28
     name rhand
     direction -1 -4.48996e-011 5.9603e-026   
     length 0.683735   
     axis -3.80318e-014 -90 -90   XYZ
    dof rx rz
    limits (-90.0 90.0)
           (-45.0 45.0)
  end
  begin
     id 29
     name rfingers
     direction -1 -4.48924e-011 1.19206e-025   
     length 0.551245   
     axis -7.60636e-014 -90 -90   XYZ
    dof rx
    limits (0.0 90.0)
  end
  begin
     id 30
     name rthumb
     direction -0.707107 -6.3492e-011 0.707107   
     length 0.791481   
     axis -90 -45 -2.85299e-015   XYZ
    dof rx rz
    limits (-45.0 45.0)
           (-45.0 45.0)
  end
:hierarchy
  begin
    root lhipjoint rhipjoint lowerback
    lhipjoint lfemur
    lfemur ltibia
    ltibia lfoot
    lfoot ltoes
    rhipjoint rfemur
    rfemur rtibia
    rtibia rfoot
    rfoot rtoes
    lowerback upperback
    upperback thorax
    thorax lowerneck lclavicle rclavicle
    lowerneck upperneck
    upperneck head
    lclavicle lhumerus
    lhumerus lradius
    lradius lwrist
    lwrist lhand lthumb
    lhand lfingers
    rclavicle rhumerus
    rhumerus rradius
    rradius rwrist
    rwrist rhand rthumb
    rhand rfingers
  end

#!OML:ASF F:\VICON\USERDATA\INSTALL\rory3\rory3.ASF
:FULLY-SPECIFIED
:DEGREES
592
root -0.307819 18.1852 -30.8842 6.78322 -4.244 -2.65121
lowerback -4.7015 -0.408928 -1.00268
upperback -4.35693 -0.493013 2.60986
thorax -1.81716 -0.185346 3.23567
lowerneck -5.64289 4.42946 2.38609
upperneck 1.66106 5.8027 -2.0766
head 1.61222 2.8685 -0.868824
rclavicle -6.21202e-015 -1.94809e-014
rhumerus 13.825 17.6596 -82.7505
rradius 111.666
rwrist -9.79412
rhand -23.214 45.7075
rfingers 7.12502
rthumb 3.23642 15.7523
lclavicle -6.21202e-015 -1.94809e-014
lhumerus 16.5261 -19.0503 86.6902
lradius 105.099
lwrist 108.771
lhand -37.4643 68.2421
lfingers 7.12502
lthumb -190.523 82.0412
rfemur -19.9887 11.6799 20.7873
rtibia 40.9008
rfoot -34.3537 -8.25671
rtoes 13.3796
lfemur -9.58294 -10.6269 -17.6545
ltibia 21.5833
lfoot -16.0885 14.2704
ltoes -4.94244
593
root -0.302424 18.1745 -30.8593 6.69645 -4.03849 -2.87294
lowerback -4.79457 -0.709 -1.10059
upperback -4.25584 -0.88892 3.04029
thorax -1.62917 -0.378912 3.7225
lowerneck -5.86957 4.56753 1.94735
upperneck 1.54022 6.01624 -2.2056
head 1.60706 2.96767 -0.824191
rclavicle 1.3418e-015 -7.95139e-015
rhumerus 11.3433 20.903 -81.9454
rradius 120.155
rwrist -15.6611
rhand -16.0838 43.2047
rfingers 7.12502
rthumb 10.1193 13.468
lclavicle 1.3418e-015 -7.95139e-015
lhumerus 13.3617 -21.6079 87.5131
lradius 109.585
lwrist 110.455
lhand -38.8021 81.3564
lfingers 7.12502
lthumb -191.813 68.9968
rfemur -19.7536 11.6332 21.0835
rtibia 40.861
rfoot -34.4756 -8.48412
rtoes 12.7848
lfemur -9.51611 -10.9989 -17.4487
ltibia 21.7513
lfoot -16.3123 14.377
ltoes -4.40301
594
root -0.293786 18.1631 -30.8378 6.54639 -3.98652 -2.92819
lowerback -4.51893 -0.962575 -1.04777
upperback -4.39625 -1.22427 3.16697
thorax -1.90254 -0.541887 3.81941
lowerneck -5.87677 4.74507 2.21768
upperneck 1.70245 6.24951 -2.584
head 1.69157 3.07722 -0.978299
rclavicle 8.15017e-015 1.70955e-014
rhumerus 8.76814 22.1668 -82.1795
rradius 124.697
rwrist -2.47661
rhand -17.8409 40.0728
rfingers 7.12502
rthumb 8.42386 10.2608
lclavicle 8.15017e-015 1.70955e-014
lhumerus 9.32054 -24.1543 88.428
lradius 112.911
lwrist 112.73
lhand -35.9034 85.7681
lfingers 7.12502
lthumb -189.017 64.4446
rfemur -19.5225 11.3881 21.1719
rtibia 40.8392
rfoot -34.4206 -8.62998
rtoes 12.4101
lfemur -9.37113 -11.043 -17.4679
ltibia 21.937
lfoot -16.3988 14.5185
ltoes -5.48855
595
root -0.287225 18.1549 -30.8189 6.3667 -4.23337 -2.97994
lowerback -5.14803 -1.12274 -0.642685
upperback -3.90575 -1.46667 2.90997
thorax -1.04154 -0.690725 3.29479
lowerneck -6.2638 4.9922 3.52676
upperneck 1.71074 6.50117 -3.42409
head 1.85952 3.19039 -1.45053
rclavicle -9.14409e-015 -2.46493e-014
rhumerus 7.29161 23.6899 -82.3824
rradius 126.22
rwrist 5.32174
rhand -19.9345 41.0343
rfingers 7.12502
rthumb 6.40304 11.1511
lclavicle -9.14409e-015 -2.46493e-014
lhumerus 5.95819 -26.0986 88.8339
lradius 114.927
lwrist 110.911
lhand -26.7346 87.5342
lfingers 7.12502
lthumb -180.164 62.4861
rfemur -19.3351 11.6166 21.2306
rtibia 40.8738
rfoot -34.4691 -8.76247
rtoes 11.8034
lfemur -9.08824 -11.1997 -17.5288
ltibia 22.0385
lfoot -16.5745 14.9763
ltoes -6.46061
596
root -0.279601 18.1448 -30.803 6.11069 -4.78572 -3.17435
lowerback -4.81282 -1.26092 0.205227
upperback -4.05066 -1.67655 2.37891
thorax -1.40201 -0.8163 2.27047
lowerneck -6.48978 5.31016 5.62617
upperneck 2.6722 6.8059 -4.25823
head 2.36423 3.34076 -2.06576
rclavicle -6.60959e-015 2.18663e-015
rhumerus 4.94786 26.3656 -83.4809
rradius 127.551
rwrist 1.22638
rhand -18.5351 41.6321
rfingers 7.12502
rthumb 7.75387 11.7943
lclavicle -6.60959e-015 2.18663e-015
lhumerus 1.75884 -27.1299 89.5702
lradius 115.412
lwrist 104.169
lhand -9.61737 267.054
lfingers 7.12502
lthumb -163.648 57.7232
rfemur -19.1152 11.9853 21.4503
rtibia 40.9849
rfoot -34.3139 -8.92386
rtoes 10.688
lfemur -8.62338 -10.9752 -17.4644
ltibia 22.0074
lfoot -16.8841 15.0727
ltoes -5.65333
597
root -0.267082 18.1376 -30.7932 5.79854 -5.49994 -3.10383
lowerback -4.64718 -1.37561 0.128127
upperback -3.99098 -1.82675 2.33863
thorax -1.42586 -0.890812 2.26988
lowerneck -7.07562 5.57254 6.88199
upperneck 3.74029 7.0807 -5.0006
head 2.95085 3.47034 -2.50891
rclavicle 1.65985e-014 1.59028e-015
rhumerus 3.1603 27.5316 -83.6265
rradius 127.68
rwrist -0.684655
rhand -17.2078 41.8256
rfingers 7.12502
rthumb 9.03482 12.0391
lclavicle 1.65985e-014 1.59028e-015
lhumerus -1.38998 -27.1941 90.9608
lradius 115.785
lwrist 99.4791
lhand 3.32162 261.798
lfingers 7.12502
lthumb -151.232 53.9943
rfemur -18.9159 12.2193 21.3405
rtibia 41.1836
rfoot -34.036 -8.8932
rtoes 9.61246
lfemur -8.01847 -10.4352 -17.7412
ltibia 21.8595
lfoot -16.9881 15.1052
ltoes -5.60364
598
root -0.251284 18.1312 -30.7902 5.39532 -6.39783 -2.8821
lowerback -4.32817 -1.45989 -0.115457
upperback -3.94621 -1.93004 2.28481
thorax -1.54742 -0.937716 2.35547
lowerneck -7.6585 5.78604 7.67567
upperneck 5.2325 7.32493 -5.50425
head 3.28578 3.57154 -2.5057
rclavicle 5.1038e-014 -5.56597e-015
rhumerus 1.55534 28.2756 -83.7257
rradius 126.543
rwrist -1.38212
rhand -16.8849 41.5272
rfingers 7.12502
rthumb 9.34643 11.7544
lclavicle 5.1038e-014 -5.56597e-015
lhumerus -4.10541 -26.5396 92.3521
lradius 115.96
lwrist 97.6409
lhand 10.8196 255.585
lfingers 7.12502
lthumb -144.097 49.2447
rfemur -18.739 12.2084 21.0454
rtibia 41.4557
rfoot -33.4759 -9.05813
rtoes 6.51171
lfemur -7.25447 -10.0238 -18.2272
ltibia 21.6126
lfoot -17.154 15.5655
ltoes -6.38158
599
root -0.237148 18.1216 -30.7889 5.02421 -7.60848 -2.71578
lowerback -3.97463 -1.37779 -0.285694
upperback -3.99708 -1.81368 2.21324
thorax -1.79916 -0.874845 2.39133
lowerneck -7.90013 5.81873 7.89011
upperneck 6.46019 7.34421 -5.21566
head 3.69534 3.59892 -2.42838
rclavicle -9.61621e-015 -1.23246e-014
rhumerus 0.172355 28.6576 -83.606
rradius 125.232
rwrist -3.11212
rhand -15.9033 41.2448
rfingers 7.12502
rthumb 10.2935 11.5167
lclavicle -9.61621e-015 -1.23246e-014
lhumerus -6.90063 -25.5835 93.6303
lradius 116.2
lwrist 97.7801
lhand 7.12001 257.024
lfingers 7.12502
lthumb -147.61 49.8972
rfemur -18.6524 12.4452 20.7756
rtibia 41.7665
rfoot -32.907 -8.74822
rtoes 5.42643
lfemur -6.41206 -9.7668 -18.6907
ltibia 21.2583
lfoot -17.6629 16.2605
ltoes -5.94348
600
root -0.22711 18.1131 -30.7955 4.7862 -8.88829 -2.4965
lowerback -3.68802 -1.37645 -0.725959
upperback -4.36087 -1.79573 2.37841
thorax -2.3189 -0.846318 2.82465
lowerneck -6.6338 5.85062 7.07141
upperneck 6.73155 7.48186 -4.1013
head 3.89522 3.72984 -2.20653
rclavicle 1.39398e-014 -3.18055e-015
rhumerus -1.65091 29.6402 -83.4128
rradius 123.558
rwrist -4.4141
rhand -16.0607 42.3293
rfingers 7.12502
rthumb 10.1416 12.5937
lclavicle 1.39398e-014 -3.18055e-015
lhumerus -9.86902 -24.0701 94.9431
lradius 116.365
lwrist 99.499
lhand 2.52936 258.125
lfingers 7.12502
lthumb -151.989 50.1953
rfemur -18.7601 12.8067 20.4254
rtibia 42.0584
rfoot -32.3148 -8.38044
rtoes 4.4772
lfemur -5.78331 -9.03093 -19.1163
ltibia 20.9147
lfoot -18.0404 16.4094
ltoes -4.92427
601
root -0.222874 18.1125 -30.8166 4.67683 -10.0039 -2.33185
lowerback -3.41477 -1.09151 -0.797037
upperback -4.47016 -1.41822 2.05393
thorax -2.6112 -0.656885 2.54446
lowerneck -6.63977 5.70314 7.12482
upperneck 7.77408 7.25121 -3.56423
head 3.79313 3.63294 -1.83167
rclavicle 9.93923e-016 2.32578e-014
rhumerus -3.18045 29.4764 -83.1743
rradius 122.303
rwrist -5.4428
rhand -15.8252 43.3643
rfingers 7.12502
rthumb 10.3688 13.6399
lclavicle 9.93923e-016 2.32578e-014
lhumerus -11.5482 -23.8962 95.1844
lradius 116.338
lwrist 102.62
lhand -2.82354 259.868
lfingers 7.12502
lthumb -157.117 51.2054
rfemur -19.0045 13.1718 20.1737
rtibia 42.2905
rfoot -31.9093 -8.01892
rtoes 4.10042
lfemur -5.45234 -7.86571 -19.3292
ltibia 20.6164
lfoot -17.8364 16.2161
ltoes -6.04211
602
root -0.216775 18.1135 -30.8375 4.74966 -11.1061 -2.31838
lowerback -3.23186 -0.764299 -0.687497
upperback -4.6826 -0.986866 1.78165
thorax -2.9613 -0.444868 2.21312
lowerneck -6.75418 5.43268 7.62702
upperneck 8.64189 6.84122 -3.5476
head 4.07202 3.45222 -1.91818
rclavicle -2.80038e-014 -1.0138e-014
rhumerus -4.61213 29.257 -83.0532
rradius 121.118
rwrist -6.29681
rhand -15.4094 44.297
rfingers 7.12502
rthumb 10.7699 14.593
lclavicle -2.80038e-014 -1.0138e-014
lhumerus -13.1319 -23.968 95.3205
lradius 116.194
lwrist 106.385
lhand -9.27909 263.411
lfingers 7.12502
lthumb -163.322 54.1077
rfemur -19.3906 13.3659 20.047
rtibia 42.4556
rfoot -31.2994 -7.97344
rtoes 2.32172
lfemur -5.29574 -7.02691 -19.3925
ltibia 20.3714
lfoot -17.8871 16.2436
ltoes -6.04804
